<svg xmlns="http://www.w3.org/2000/svg" viewBox="0 0 448 512" fill="currentColor">
  <path d="M224.1 141c-63.6 0-114.9 51.3-114.9 114.9s51.3 114.9 
  114.9 114.9S339 319.5 339 255.9 287.7 141 224.1 141zm0 
  189.6c-41.2 0-74.7-33.5-74.7-74.7s33.5-74.7 
  74.7-74.7 74.7 33.5 74.7 74.7-33.5 74.7-74.7 
  74.7zm146.4-194.3c0 14.9-12 26.9-26.9 
  26.9-14.9 0-26.9-12-26.9-26.9s12-26.9 
  26.9-26.9 26.9 12 26.9 26.9zm76.1 
  27.2c-1.7-35.7-9.9-67.3-36.2-93.5S362.8 
  9.4 327.1 7.7C291.1 5.9 156.9 5.9 
  120.9 7.7 85.2 9.4 53.6 17.6 27.4 
  43.8S9.4 85.2 7.7 120.9C5.9 156.9 5.9 
  291.1 7.7 327.1c1.7 35.7 9.9 67.3 36.2 
  93.5 26.2 26.2 57.8 34.4 93.5 
  36.2 36 1.8 170.2 1.8 206.2 
  0 35.7-1.7 67.3-9.9 93.5-36.2 26.2-26.2 
  34.4-57.8 36.2-93.5 1.8-36 1.8-170.2 
  0-206.2z"></path>
</svg>
